#!OML:ASF F:\VICON\USERDATA\INSTALL\rory3\rory3.ASF
:FULLY-SPECIFIED
:DEGREES
1
root 0.37789300000000003 17.1514 -33.096500000000084 1.262969999999999 -8.625399999999996 -4.395010000000006
lfemur -12.075 10.159600000000001 -11.385500000000004
ltibia 100.84000000000005
lfoot 16.862299999999976 -15.319000000000011
ltoes 8.80572999999998
rfemur -21.25069999999999 10.093699999999988 35.68180000000001
rtibia 51.488000000000014
rfoot -19.8098 -9.713189999999997
rtoes 4.082490000000002
lowerback -8.881784189112644e-10 1.7248100000000006 1.5440799999999997
upperback -0.6023169999999987 3.058840000000002 3.442459999999996
thorax -11.9774 1.4610899999999987 2.038550000000002
lowerneck -18.0707 -2.4362200000000005 -3.968069999999999
upperneck 12.4211 -2.9360800000000005 3.918079999999996
head 6.86752 -1.2502299999999995 1.59246
lclavicle 2.494750000000003e-14 1.113190000000001e-14
lhumerus -50.1287 -14.044600000000004 99.9182
lradius 103.97400000000002
lwrist 29.0848
lhand -20.7999 4.886579999999999
lfingers 7.12502
lthumb 5.56754 34.79339999999999
rclavicle 2.494750000000003e-14 1.113190000000001e-14
rhumerus -46.340300000000006 13.178000000000004 -99.3044
rradius 102.686
rwrist -14.9963
rhand -17.2159 -8.881784189112644e-10
rfingers 7.12502
rthumb 9.02699 7.151139999999996
2
root 0.42224699999999993 16.9226 -31.31660000000007 3.6045300000000005 -3.054839999999997 -3.9335100000000023
lfemur -28.47579999999998 6.377430000000009 -11.966100000000006
ltibia 107.62400000000002
lfoot 9.58195999999999 -11.113400000000006
ltoes 6.86000999999998
rfemur -17.3374 6.261850000000001 35.4076
rtibia 51.48759999999998
rfoot -25.65100000000002 -12.872500000000016
rtoes -2.0591500000000025
lowerback -8.881784189112644e-10 0.07114489999999984 3.220080000000001
upperback -0.8519709999999998 1.06679 3.1395399999999962
thorax -10.387599999999999 0.43094099999999985 1.325590000000001
lowerneck -18.3115 -2.664869999999997 -4.02339
upperneck 10.929399999999998 -3.195580000000002 4.032869999999999
head 6.438060000000001 -1.369370000000001 1.60718
lclavicle -6.957460000000077e-16 1.0336800000000029e-14
lhumerus -53.5356 -11.549599999999998 99.3732
lradius 102.5
lwrist 24.3399
lhand -20.9098 5.797459999999997
lfingers 7.12502
lthumb 5.46143 35.707100000000004
rclavicle -6.957460000000077e-16 1.0336800000000029e-14
rhumerus -39.62729999999999 16.558999999999997 -99.5765
rradius 106.089
rwrist -15.6013
rhand -17.7832 -8.881784189112644e-10
rfingers 7.12502
rthumb 8.479520000000004 8.27926
3
root 0.44902200000000003 16.97 -29.481599999999947 4.239439999999998 -1.9024800000000006 -4.826710000000004
lfemur -39.00940000000003 5.4395500000000006 -12.090699999999995
ltibia 105.33000000000007
lfoot 6.1329400000000085 -10.1194
ltoes 6.027199999999964
rfemur -9.099559999999991 4.716669999999997 36.43460000000002
rtibia 47.2161
rfoot -24.190900000000024 -12.978499999999997
rtoes -13.03950000000002
lowerback -8.881784189112644e-10 0.7030819999999999 4.9683800000000025
upperback -1.39428 2.3069099999999985 2.909749999999999
thorax -11.231700000000002 0.8900400000000002 -0.23392699999999989
lowerneck -19.45 -3.5387399999999998 -3.6198299999999985
upperneck 11.8014 -4.468130000000002 4.029050000000003
head 6.951930000000001 -1.9443199999999994 1.3833100000000003
lclavicle 7.851990000000006e-15 -1.669789999999997e-14
lhumerus -58.50909999999998 -12.262299999999998 100.062
lradius 105.358
lwrist 28.564999999999998
lhand -21.1026 5.661519999999998
lfingers 7.12502
lthumb 5.275310000000001 35.57589999999999
rclavicle 7.851990000000006e-15 -1.669789999999997e-14
rhumerus -35.79089999999997 16.530999999999988 -99.2938
rradius 111.89
rwrist -16.6387
rhand -18.3961 -8.881784189112644e-10
rfingers 7.12502
rthumb 7.888039999999997 8.98916
4
root 0.507086 17.2923 -27.41990000000006 5.072280000000003 -2.841520000000002 -4.670229999999995
lfemur -43.950400000000045 4.5395800000000035 -14.407899999999989
ltibia 94.43739999999994
lfoot -1.920590000000006 -6.9478100000000005
ltoes -8.02463
rfemur -0.22751700000000596 6.217510000000003 35.45179999999999
rtibia 41.39479999999995
rfoot -17.537500000000023 -7.411920000000001
rtoes -18.366199999999978
lowerback -8.881784189112644e-10 2.1083799999999995 5.894449999999995
upperback -1.9342499999999994 4.1632400000000045 2.0675
thorax -10.5868 1.6962400000000004 -2.0786199999999955
lowerneck -18.9466 -4.18633 -3.304590000000002
upperneck 12.4534 -5.48667 4.12821
head 7.1166 -2.40896 1.24744
lclavicle -7.25563999999999e-15 1.0336800000000029e-14
lhumerus -63.85119999999998 -11.582599999999998 99.9275
lradius 108.255
lwrist 30.157999999999998
lhand -19.6972 3.736979999999999
lfingers 7.12502
lthumb 6.632089999999998 33.6131
rclavicle -7.25563999999999e-15 1.0336800000000029e-14
rhumerus -34.72220000000003 16.004000000000005 -99.4504
rradius 116.83600000000001
rwrist -17.402799999999996
rhand -19.0192 -8.881784189112644e-10
rfingers 7.12502
rthumb 7.286670000000006 10.763399999999999
5
root 0.525853 17.7005 -25.288899999999988 4.580389999999996 -0.4227850000000013 -4.3231899999999985
lfemur -44.48939999999995 0.1340740000000027 -15.974500000000003
ltibia 78.03849999999996
lfoot -5.026049999999994 -6.419540000000003
ltoes -10.439699999999995
rfemur 8.647059999999936 4.8129700000000035 34.545100000000005
rtibia 33.83839999999995
rfoot 0.5657839999999998 -1.227350000000004
rtoes -16.07729999999996
lowerback -8.881784189112644e-10 2.331810000000001 6.650509999999996
upperback 0.43025099999999816 4.021800000000006 1.860939999999999
thorax -5.311439999999993 1.834590000000001 -2.3822399999999986
lowerneck -20.214 -4.99359 -3.3189300000000013
upperneck 10.986 -6.4410599999999985 3.9305300000000045
head 6.872399999999999 -2.8824299999999985 1.0594
lclavicle -6.659289999999989e-15 -3.9756900000000557e-16
lhumerus -62.93779999999999 -9.12064 98.5096
lradius 108.304
lwrist 30.639700000000005
lhand -19.7494 3.4274799999999983
lfingers 7.12502
lthumb 6.581689999999999 33.3052
rclavicle -6.659289999999989e-15 -3.9756900000000557e-16
rhumerus -30.18519999999999 16.591099999999994 -97.0193
rradius 118.099
rwrist -16.234
rhand -18.3531 -8.881784189112644e-10
rfingers 7.12502
rthumb 7.929539999999999 14.655799999999996
6
root 0.5551560000000001 18.0655 -23.079899999999935 4.263679999999997 0.6030609999999981 -3.266709999999997
lfemur -41.12310000000006 -2.652989999999993 -17.922600000000006
ltibia 57.5827
lfoot -4.620690000000005 -8.059200000000002
ltoes -19.97149999999998
rfemur 15.62930000000004 4.768989999999999 32.391099999999994
rtibia 28.14370000000003
rfoot 21.43100000000001 3.1069499999999888
rtoes -1.0979800000000008
lowerback -8.881784189112644e-10 2.3427399999999974 6.208260000000004
upperback -2.2031600000000013 4.237120000000006 1.0415399999999992
thorax -9.24953 1.7356800000000012 -3.236690000000004
lowerneck -18.456099999999996 -5.159280000000002 -2.9879599999999997
upperneck 13.7346 -6.915729999999999 3.872329999999997
head 7.48856 -3.0913299999999992 0.9388299999999986
lclavicle -2.842619999999996e-14 -1.1529499999999991e-14
lhumerus -69.28069999999995 -4.873110000000011 96.1077
lradius 108.746
lwrist 32.718
lhand -21.317700000000002 3.513899999999999
lfingers 7.12502
lthumb 5.067570000000001 33.4333
rclavicle -2.842619999999996e-14 -1.1529499999999991e-14
rhumerus -36.110000000000014 16.641800000000014 -98.6745
rradius 118.103
rwrist -14.459400000000002
rhand -18.733699999999995 -8.881784189112644e-10
rfingers 7.12502
rthumb 7.5621599999999995 12.260499999999999
